<?xml version="1.0" encoding="utf-8"?>
<!-- Generator: Adobe Illustrator 20.0.0, SVG Export Plug-In . SVG Version: 6.00 Build 0)  -->
<svg version="1.1" id="Слой_1" xmlns="http://www.w3.org/2000/svg" xmlns:xlink="http://www.w3.org/1999/xlink" x="0px" y="0px"
	 viewBox="0 0 12.6 12.2" style="enable-background:new 0 0 12.6 12.2;" xml:space="preserve">
<style type="text/css">
	.st0{fill:#010202;}
</style>
<g>
	<g>
		<path class="st0" d="M6.3,5.2c3.5,0,6.3-0.8,6.3-1.8V1.8c0-1-2.8-1.8-6.3-1.8C2.8,0,0,0.8,0,1.8v1.5C0,4.3,2.8,5.2,6.3,5.2z
			 M12.6,4.3C12.4,5.3,9.6,6,6.3,6C3,6,0.2,5.3,0,4.3c0,0,0,2.5,0,2.5c0,1,2.8,1.8,6.3,1.8c3.5,0,6.3-0.8,6.3-1.8
			C12.6,6.8,12.6,4.4,12.6,4.3z M6.3,9.6C3,9.6,0.2,8.8,0,7.9l0,2.5c0,1,2.8,1.8,6.3,1.8c3.5,0,6.3-0.8,6.3-1.8l0-2.5
			C12.4,8.8,9.6,9.6,6.3,9.6z"/>
	</g>
</g>
</svg>
