<?xml version="1.0" encoding="utf-8"?>
<!-- Generator: Adobe Illustrator 20.0.0, SVG Export Plug-In . SVG Version: 6.00 Build 0)  -->
<svg version="1.1" id="Слой_1" xmlns="http://www.w3.org/2000/svg" xmlns:xlink="http://www.w3.org/1999/xlink" x="0px" y="0px"
	 viewBox="0 0 13 14.4" style="enable-background:new 0 0 13 14.4;" xml:space="preserve">
<style type="text/css">
	.st0{fill:#010202;}
</style>
<path class="st0" d="M0,3.5l0,7.5c0,0.1,0.1,0.2,0.1,0.2l6.1,3.1c0,0,0.1,0,0.1,0c0,0,0,0,0,0c0,0,0,0,0.1,0.1c0,0,0.1,0,0.1,0
	c0,0,0.1,0,0.1,0l6.1-3.2c0.1,0,0.1-0.1,0.1-0.2V3.2c0,0,0,0,0,0c0,0,0,0,0,0c0,0,0,0,0,0c0,0,0,0,0,0c0,0,0,0,0,0c0,0,0,0,0,0
	c0,0,0,0,0,0c0,0,0,0,0,0c0,0,0,0,0,0c0,0,0,0,0,0c0,0,0,0,0,0c0,0,0,0,0,0L6.6,0C6.5,0,6.4,0,6.3,0L0.2,3.1C0.1,3.2,0,3.3,0,3.5
	C0,3.4,0,3.4,0,3.5C0,3.4,0,3.4,0,3.5z M12.1,3.2l-5.4,3L0.9,3.4l5.6-2.8L12.1,3.2z M6.9,13.7V6.6l5.5-3v7.2L6.9,13.7z"/>
</svg>
