<?xml version="1.0" encoding="utf-8"?>
<!-- Generator: Adobe Illustrator 20.0.0, SVG Export Plug-In . SVG Version: 6.00 Build 0)  -->
<svg version="1.1" id="Слой_1" xmlns="http://www.w3.org/2000/svg" xmlns:xlink="http://www.w3.org/1999/xlink" x="0px" y="0px"
	 viewBox="0 0 9.1 9.1" style="enable-background:new 0 0 9.1 9.1;" xml:space="preserve">
<style type="text/css">
	.st0{fill:#010202;}
</style>
<g>
	<g>
		<path class="st0" d="M8,4.9H4.6c-0.2,0-0.4-0.2-0.4-0.4V1.1c0-0.1,0-0.2-0.1-0.3C4,0.8,3.9,0.7,3.8,0.7C1.7,0.9,0,2.7,0,4.9
			c0,2.3,1.9,4.2,4.2,4.2c2.2,0,4-1.7,4.2-3.8c0-0.1,0-0.2-0.1-0.3C8.2,5,8.1,4.9,8,4.9z M5.3,0C5.3,0,5.3,0,5.3,0
			C5.2,0,5.1,0,5.1,0.1C5,0.2,4.9,0.3,4.9,0.4v3.5c0,0.2,0.2,0.4,0.4,0.4h3.5c0.1,0,0.2,0,0.3-0.1C9.1,4,9.1,3.9,9.1,3.8
			C8.9,1.8,7.3,0.2,5.3,0z M5.6,3.6V0.7C7,0.9,8.2,2.1,8.5,3.6H5.6z"/>
	</g>
</g>
</svg>
