<?xml version="1.0" encoding="utf-8"?>
<!-- Generator: Adobe Illustrator 20.0.0, SVG Export Plug-In . SVG Version: 6.00 Build 0)  -->
<svg version="1.1" id="Слой_1" xmlns="http://www.w3.org/2000/svg" xmlns:xlink="http://www.w3.org/1999/xlink" x="0px" y="0px"
	 viewBox="0 0 12.5 14.4" style="enable-background:new 0 0 12.5 14.4;" xml:space="preserve">
<style type="text/css">
	.st0{fill:#010202;}
</style>
<path class="st0" d="M0.9,14.4h10.7c0.5,0,0.9-0.4,0.9-0.9V0.9c0-0.5-0.4-0.9-0.9-0.9H0.9C0.4,0,0,0.4,0,0.9v12.6
	C0,14,0.4,14.4,0.9,14.4z M0.9,0.9h10.7v12.6H0.9V0.9z M9.4,2.7H5.8c-0.2,0-0.4,0.2-0.4,0.4s0.2,0.5,0.4,0.5h3.6
	c0.2,0,0.4-0.2,0.4-0.5S9.6,2.7,9.4,2.7z M9.4,5.4H3.1c-0.2,0-0.4,0.2-0.4,0.4s0.2,0.4,0.4,0.4h6.2c0.2,0,0.4-0.2,0.4-0.4
	S9.6,5.4,9.4,5.4z M9.4,8.1H3.1c-0.2,0-0.4,0.2-0.4,0.5S2.9,9,3.1,9h6.2c0.2,0,0.4-0.2,0.4-0.4S9.6,8.1,9.4,8.1z M9.4,10.8H3.1
	c-0.2,0-0.4,0.2-0.4,0.4c0,0.2,0.2,0.4,0.4,0.4h6.2c0.2,0,0.4-0.2,0.4-0.4C9.8,11,9.6,10.8,9.4,10.8z"/>
</svg>
