<?xml version="1.0" encoding="utf-8"?>
<!-- Generator: Adobe Illustrator 20.0.0, SVG Export Plug-In . SVG Version: 6.00 Build 0)  -->
<svg version="1.1" id="Слой_1" xmlns="http://www.w3.org/2000/svg" xmlns:xlink="http://www.w3.org/1999/xlink" x="0px" y="0px"
	 viewBox="0 0 10.1 9.6" style="enable-background:new 0 0 10.1 9.6;" xml:space="preserve">
<style type="text/css">
	.st0{fill:#010202;}
</style>
<g>
	<g>
		<path class="st0" d="M9.9,4.3L8.4,2.8V1c0-0.3-0.3-0.6-0.6-0.6C7.5,0.4,7.2,0.6,7.2,1v0.6L6.1,0.4C5.5-0.1,4.5-0.1,4,0.4L0.2,4.3
			c-0.2,0.2-0.2,0.6,0,0.8c0.2,0.2,0.6,0.2,0.8,0l3.8-3.9c0.1-0.1,0.3-0.1,0.5,0l3.8,3.9c0.1,0.1,0.3,0.2,0.4,0.2
			c0.1,0,0.3-0.1,0.4-0.2C10.1,4.9,10.1,4.6,9.9,4.3z M5.2,2.4c-0.1-0.1-0.3-0.1-0.4,0L1.5,5.8C1.4,5.9,1.4,6,1.4,6v2.5
			c0,0.6,0.5,1.1,1,1.1h1.7V7H6v2.6h1.7c0.6,0,1-0.5,1-1.1V6c0-0.1,0-0.2-0.1-0.2L5.2,2.4z"/>
	</g>
</g>
</svg>
