<?xml version="1.0" encoding="utf-8"?>
<!-- Generator: Adobe Illustrator 20.0.0, SVG Export Plug-In . SVG Version: 6.00 Build 0)  -->
<svg version="1.1" id="Слой_1" xmlns="http://www.w3.org/2000/svg" xmlns:xlink="http://www.w3.org/1999/xlink" x="0px" y="0px"
	 viewBox="0 0 9.1 8.6" style="enable-background:new 0 0 9.1 8.6;" xml:space="preserve">
<style type="text/css">
	.st0{fill:#010202;}
</style>
<g>
	<g>
		<path class="st0" d="M5.8,7.6H1.1V1h4.7C5.9,1,5.9,1,5.9,0.9V0.2C5.9,0.1,5.9,0,5.8,0H0.2C0.1,0,0,0.1,0,0.2v8.3
			c0,0.1,0.1,0.2,0.2,0.2h5.6c0.1,0,0.2-0.1,0.2-0.2V7.8C5.9,7.7,5.9,7.6,5.8,7.6z M9.1,4.2L6.5,1.7c-0.1-0.1-0.2-0.1-0.3,0L5.7,2.3
			c-0.1,0.1-0.1,0.2,0,0.3l1.1,1.1h-5c-0.1,0-0.2,0.1-0.2,0.2v0.9C1.7,4.9,1.8,5,1.9,5h5L5.7,6.1c-0.1,0.1-0.1,0.2,0,0.3l0.6,0.6
			C6.3,7,6.3,7,6.4,7c0,0,0.1,0,0.1-0.1l2.5-2.5c0,0,0.1-0.1,0.1-0.1C9.1,4.3,9.1,4.2,9.1,4.2z"/>
	</g>
</g>
</svg>
