<?xml version="1.0" encoding="utf-8"?>
<!-- Generator: Adobe Illustrator 20.0.0, SVG Export Plug-In . SVG Version: 6.00 Build 0)  -->
<svg version="1.1" id="Слой_1" xmlns="http://www.w3.org/2000/svg" xmlns:xlink="http://www.w3.org/1999/xlink" x="0px" y="0px"
	 viewBox="0 0 13.3 16.7" style="enable-background:new 0 0 13.3 16.7;" xml:space="preserve">
<style type="text/css">
	.st0{fill:#010202;}
</style>
<g>
	<g>
		<path class="st0" d="M9.6,11.3c-0.2,0-0.4,0.1-0.4,0.4c0.1,0,0.2-0.1,0.3-0.1c0.1,0,0.2,0.1,0.2,0.1c0,0.1,0,0.3-0.1,0.3
			c-0.1,0.1-0.2,0.1-0.3,0.1c-0.1,0-0.3-0.2-0.4-0.2c-0.4-0.3-0.8-0.5-1.2-0.8c-0.3-0.2-0.6-0.2-1-0.1c-0.1,0-0.2,0-0.2,0
			c-0.4-0.2-0.7-0.2-1.1,0.1c-0.4,0.2-0.7,0.5-1.1,0.7c-0.1,0.1-0.3,0.2-0.5,0.3c-0.1,0.1-0.3,0-0.3-0.1c0-0.1-0.1-0.3,0-0.3
			c0.1-0.1,0.2-0.1,0.3-0.1c0,0,0.1,0,0.2,0.1c-0.1-0.3-0.3-0.4-0.5-0.4c-0.2,0-0.4,0.3-0.4,0.5c0,0.2,0.1,0.4,0.2,0.6
			c0.3,0.3,0.7,0.3,1.1,0.3c0.3-0.1,0.6-0.2,0.9-0.2c0.4-0.1,0.9-0.2,1.2-0.5c0.2,0.1,0.4,0.3,0.7,0.4c0.4,0.1,0.9,0.3,1.4,0.4
			c0.4,0.1,0.9,0.1,1.2-0.2c0.2-0.2,0.3-0.5,0.2-0.7C10,11.5,9.8,11.4,9.6,11.3z M12.3,7.7c-0.1,0-0.1-0.1-0.1-0.2
			c0.1-1.1,0.3-2.1,0.4-3.2c0-0.1,0-0.2,0-0.3c-0.3-0.5-0.6-1-0.8-1.6c-0.2-0.5-0.5-0.9-1-1.1c-0.2-0.1-0.5-0.2-0.7-0.3
			C9.9,1,9.8,1,9.7,0.9C9.6,0.7,9.6,0.6,9.4,0.4C6.5-1.4,2.3,3,2.3,3c0,0.1,0,0.1,0,0.2C2,3.5,1.8,3.9,1.5,4.2
			C1.2,4.5,1,4.9,1.2,5.3c0,0,0,0.1,0,0.1c0.1,0.4,0.2,0.7,0.2,1.1c0,0.2,0,0.5,0,0.7c0,0.2,0,0.2-0.2,0.3C0.4,8-0.1,8.8,0,9.7
			c0.1,0.8,0.7,1.6,1.5,1.8c0.2,0.1,0.3,0.2,0.4,0.4c0.3,1,0.8,1.9,1.4,2.8c0.9,1.5,2.4,2.2,4.1,1.9c1.1-0.2,2-0.8,2.6-1.8
			c0.1-0.1,0.2-0.3,0.3-0.4c0.7-0.8,1.2-1.7,1.5-2.7c0-0.1,0.1-0.2,0.2-0.2c0.5-0.2,0.8-0.5,1.1-0.9C13.6,9.6,13.2,8.3,12.3,7.7z
			 M2.3,6.6c0-0.1,0.1-0.2,0.1-0.2c0.2-0.3,0.3-0.5,0.2-0.8c-0.1-0.4,0-0.8,0.2-1.2C3,4,3.3,3.7,3.5,3.4c0.1-0.1,0.2-0.1,0.3-0.1
			c0.7,0,1.5,0.2,2.2,0.4c0,0,1.6,0.6,2.6-0.3c0.1,0,0.1,0,0.2,0c0.3,0,0.6-0.1,1-0.1c0.1,0,0.2,0,0.2,0.1c0.3,0.4,0.6,0.7,0.9,1.1
			C11,4.6,11,4.8,11.1,4.9c0.1,0.3-0.1,0.5-0.3,0.7c0.1,0.3,0.3,0.6,0.4,0.9c0.2,0.3,0.1,0.6,0.1,0.9c-0.7,0-1.4-0.1-2-0.1
			c-0.7,0-1.4,0.1-2.1,0.2C6.8,7.7,6.4,7.7,6,7.6C5.1,7.3,4.3,7.3,3.5,7.3C3,7.3,2.6,7.4,2.2,7.4C2.2,7.1,2.1,6.8,2.3,6.6z M12,10.6
			c-0.2,0.1-0.4,0.2-0.6,0.3c-0.1,0-0.2,0.1-0.2,0.2c-0.3,1.1-0.7,2-1.5,2.9c-0.1,0.1-0.2,0.2-0.3,0.4c-0.3-0.5-0.4-1-0.8-1.3
			c0,0,0,0-0.1,0c0,0.1,0,0.1,0,0.2c0,0.2,0.1,0.3,0.1,0.5c0.1,0.4-0.2,0.7-0.6,0.8c-0.3,0-0.6,0-0.8-0.2c-0.1-0.1-0.2-0.1-0.4-0.1
			c-0.1,0-0.3,0-0.4,0c-0.1,0-0.2,0-0.4,0.1c-0.3,0.3-0.8,0.3-1.1,0.1c-0.2-0.2-0.3-0.4-0.2-0.7c0-0.2,0.1-0.3,0.1-0.5
			c0-0.1,0-0.1,0-0.2c-0.4,0.3-0.5,0.7-0.7,1.1c-0.9-0.9-1.4-2-1.7-3.2c-0.7,0-1.2-0.2-1.5-0.9C0.6,9.5,0.7,9,1.1,8.6
			c0.3-0.3,0.6-0.5,1.1-0.4C2.2,8.6,2.3,9,2.4,9.4c0.3,1,1,1.4,2,1.3c0.3,0,0.5-0.1,0.8-0.2C5.8,10.3,6.3,9.8,6.4,9
			c0-0.2,0.1-0.4,0.2-0.6c0,0,0,0,0.1,0C6.7,8.6,6.8,8.8,6.8,9c0.2,1,0.8,1.6,1.8,1.7c0.3,0,0.5,0.1,0.8,0c0.6-0.1,1.1-0.4,1.3-1
			c0.1-0.3,0.2-0.7,0.2-1.1c0-0.1,0-0.3,0-0.4c0.6-0.1,1.1,0.2,1.4,0.8C12.7,9.6,12.5,10.3,12,10.6z"/>
	</g>
</g>
</svg>
