<?xml version="1.0" encoding="utf-8"?>
<!-- Generator: Adobe Illustrator 20.0.0, SVG Export Plug-In . SVG Version: 6.00 Build 0)  -->
<svg version="1.1" id="Слой_1" xmlns="http://www.w3.org/2000/svg" xmlns:xlink="http://www.w3.org/1999/xlink" x="0px" y="0px"
	 viewBox="0 0 10.6 9.6" style="enable-background:new 0 0 10.6 9.6;" xml:space="preserve">
<style type="text/css">
	.st0{fill:#010202;}
</style>
<g>
	<g>
		<path class="st0" d="M8.4,0H2.1C0.9,0,0,0.9,0,2.1v3.8C0,7,0.9,8,2.1,8h4.3l1.5,1.5C8,9.5,8.1,9.6,8.2,9.6c0.1,0,0.1,0,0.2,0
			c0.2-0.1,0.3-0.3,0.3-0.5V8C9.2,7.9,9.6,7.7,10,7.3c0.4-0.4,0.6-0.9,0.6-1.5V2.1C10.6,0.9,9.6,0,8.4,0z M9.5,5.9
			C9.5,6.5,9.1,7,8.4,7H8.2C8,7,7.7,7.2,7.7,7.5v0.4L6.9,7.1C6.9,7,6.7,7,6.6,7H2.1C1.5,7,1,6.5,1,5.9V2.1C1,1.5,1.5,1,2.1,1h6.3
			c0.6,0,1.1,0.5,1.1,1.1V5.9z M3,3.2C2.5,3.2,2.1,3.6,2.1,4S2.5,4.8,3,4.8c0.5,0,0.8-0.4,0.8-0.8S3.4,3.2,3,3.2z M5.3,3.2
			C4.8,3.2,4.5,3.6,4.5,4s0.4,0.8,0.8,0.8c0.5,0,0.8-0.4,0.8-0.8C6.1,3.6,5.7,3.2,5.3,3.2z M7.6,3.2C7.1,3.2,6.8,3.6,6.8,4
			s0.4,0.8,0.8,0.8C8,4.8,8.4,4.4,8.4,4S8,3.2,7.6,3.2z"/>
	</g>
</g>
</svg>
