<?xml version="1.0" encoding="utf-8"?>
<!-- Generator: Adobe Illustrator 20.0.0, SVG Export Plug-In . SVG Version: 6.00 Build 0)  -->
<svg version="1.1" id="Слой_1" xmlns="http://www.w3.org/2000/svg" xmlns:xlink="http://www.w3.org/1999/xlink" x="0px" y="0px"
	 viewBox="0 0 8.6 8.6" style="enable-background:new 0 0 8.6 8.6;" xml:space="preserve">
<style type="text/css">
	.st0{fill:#010202;}
</style>
<g>
	<g>
		<path class="st0" d="M4.3,7.6C3.2,7.6,2.2,7,1.6,6.1l1.3-1.2H1.1H0h0v2.7l0.8-0.7c0.8,1.1,2.1,1.8,3.5,1.8c2.2,0,4-1.6,4.3-3.8
			H7.5C7.3,6.4,5.9,7.6,4.3,7.6z M7.9,1.9C7.1,0.7,5.8,0,4.3,0C2.1,0,0.3,1.6,0,3.8h1.1c0.3-1.5,1.6-2.7,3.2-2.7
			c1.2,0,2.2,0.6,2.8,1.6L5.9,3.8H7h0.5h1.1h0V1.1L7.9,1.9z"/>
	</g>
</g>
</svg>
