<?xml version="1.0" encoding="utf-8"?>
<!-- Generator: Adobe Illustrator 20.0.0, SVG Export Plug-In . SVG Version: 6.00 Build 0)  -->
<svg version="1.1" id="Слой_1" xmlns="http://www.w3.org/2000/svg" xmlns:xlink="http://www.w3.org/1999/xlink" x="0px" y="0px"
	 viewBox="0 0 8.6 8.6" style="enable-background:new 0 0 8.6 8.6;" xml:space="preserve">
<style type="text/css">
	.st0{fill:#010202;}
</style>
<path class="st0" d="M8.4,7.4L6.5,5.5c0,0,0,0,0,0c0.4-0.6,0.6-1.2,0.6-1.9c0-2-1.6-3.5-3.5-3.5C1.6,0,0,1.6,0,3.5s1.6,3.5,3.5,3.5
	c0.7,0,1.4-0.2,2-0.6c0,0,0,0,0,0l1.9,1.9c0.3,0.3,0.7,0.3,1,0C8.7,8.1,8.7,7.7,8.4,7.4z M3.5,5.9c-1.3,0-2.3-1-2.3-2.3
	s1-2.3,2.3-2.3c1.3,0,2.3,1,2.3,2.3C5.9,4.8,4.8,5.9,3.5,5.9z"/>
</svg>
