<?xml version="1.0" encoding="utf-8"?>
<!-- Generator: Adobe Illustrator 20.0.0, SVG Export Plug-In . SVG Version: 6.00 Build 0)  -->
<svg version="1.1" id="Слой_1" xmlns="http://www.w3.org/2000/svg" xmlns:xlink="http://www.w3.org/1999/xlink" x="0px" y="0px"
	 viewBox="0 0 8.6 8.6" style="enable-background:new 0 0 8.6 8.6;" xml:space="preserve">
<style type="text/css">
	.st0{fill:#010202;}
</style>
<path class="st0" d="M8.6,4.6V4.1c0-0.1-0.1-0.3-0.2-0.3L7.5,3.6l0-0.1C7.4,3.3,7.3,3.1,7.2,2.8l0-0.1L7.7,2c0.1-0.1,0.1-0.3,0-0.4
	L7.4,1.3C7.3,1.2,7.1,1.1,7,1.2L6.2,1.7l-0.1,0C5.8,1.5,5.5,1.3,5.1,1.2L5,1.2L4.9,0.2C4.9,0.1,4.7,0,4.6,0H4.1
	C3.9,0,3.8,0.1,3.8,0.2L3.6,1.2l-0.1,0C3.2,1.3,2.9,1.4,2.7,1.6l-0.1,0L1.8,1.1C1.7,1,1.6,1,1.5,1.1L1.1,1.5C1,1.6,1,1.7,1.1,1.8
	l0.5,0.8l0,0.1C1.4,2.9,1.3,3.2,1.2,3.6l0,0.1L0.2,3.8C0.1,3.8,0,3.9,0,4.1v0.5c0,0.1,0.1,0.3,0.2,0.3L1.2,5l0,0.1
	c0.1,0.3,0.2,0.5,0.3,0.7l0,0.1L0.9,6.6C0.8,6.7,0.8,6.9,0.9,7l0.3,0.4c0.1,0.1,0.3,0.1,0.4,0.1l0.8-0.5l0.1,0
	c0.3,0.2,0.7,0.4,1,0.5l0.1,0l0.2,0.9c0,0.1,0.1,0.2,0.3,0.2h0.5c0.1,0,0.3-0.1,0.3-0.2L5,7.5l0.1,0C5.4,7.4,5.7,7.2,6,7.1L6,7
	l0.8,0.6c0.1,0.1,0.3,0.1,0.4,0l0.4-0.4c0.1-0.1,0.1-0.3,0-0.4L7,6l0-0.1c0.2-0.3,0.3-0.6,0.4-0.9l0-0.1l0.9-0.2
	C8.5,4.8,8.6,4.7,8.6,4.6z M4.3,6.1c-1,0-1.7-0.8-1.7-1.7s0.8-1.7,1.7-1.7c1,0,1.7,0.8,1.7,1.7S5.3,6.1,4.3,6.1z"/>
</svg>
