<?xml version="1.0" encoding="utf-8"?>
<!-- Generator: Adobe Illustrator 20.0.0, SVG Export Plug-In . SVG Version: 6.00 Build 0)  -->
<svg version="1.1" id="Слой_1" xmlns="http://www.w3.org/2000/svg" xmlns:xlink="http://www.w3.org/1999/xlink" x="0px" y="0px"
	 viewBox="0 0 8.6 8.6" style="enable-background:new 0 0 8.6 8.6;" xml:space="preserve">
<style type="text/css">
	.st0{fill:#010202;}
</style>
<path class="st0" d="M4.3,8.6c2.4,0,4.3-1.9,4.3-4.3C8.6,1.9,6.7,0,4.3,0C1.9,0,0,1.9,0,4.3C0,6.7,1.9,8.6,4.3,8.6z M4.3,0.8
	c1.9,0,3.5,1.6,3.5,3.5S6.3,7.8,4.3,7.8S0.8,6.3,0.8,4.3S2.4,0.8,4.3,0.8z M2.2,2.7c0-0.3,0.2-0.5,0.5-0.5c0.3,0,0.5,0.2,0.5,0.5
	C3.2,3,3,3.2,2.7,3.2C2.4,3.2,2.2,3,2.2,2.7z M5.4,2.7c0-0.3,0.2-0.5,0.5-0.5c0.3,0,0.5,0.2,0.5,0.5c0,0.3-0.2,0.5-0.5,0.5
	C5.6,3.2,5.4,3,5.4,2.7z M2.7,6.6L2,6.2c0.5-0.8,1.3-1.3,2.3-1.3s1.8,0.5,2.3,1.3L5.9,6.6C5.6,6,5,5.7,4.3,5.7C3.6,5.7,3,6,2.7,6.6z
	"/>
</svg>
