<?xml version="1.0" encoding="utf-8"?>
<!-- Generator: Adobe Illustrator 20.0.0, SVG Export Plug-In . SVG Version: 6.00 Build 0)  -->
<svg version="1.1" id="Слой_1" xmlns="http://www.w3.org/2000/svg" xmlns:xlink="http://www.w3.org/1999/xlink" x="0px" y="0px"
	 viewBox="0 0 8.6 8.6" style="enable-background:new 0 0 8.6 8.6;" xml:space="preserve">
<style type="text/css">
	.st0{fill:#010202;}
</style>
<path class="st0" d="M4.3,8.6c2.4,0,4.3-1.9,4.3-4.3C8.6,1.9,6.7,0,4.3,0C1.9,0,0,1.9,0,4.3C0,6.7,1.9,8.6,4.3,8.6z M4.3,0.8
	c1.9,0,3.5,1.6,3.5,3.5c0,1.9-1.6,3.5-3.5,3.5S0.8,6.3,0.8,4.3C0.8,2.4,2.4,0.8,4.3,0.8z M4.3,5.1c1,0,1.9-0.3,2.7-0.7
	C6.9,5.8,5.7,7,4.3,7C2.9,7,1.7,5.8,1.6,4.3C2.4,4.8,3.3,5.1,4.3,5.1z M2.2,3c0,0.4,0.2,0.8,0.5,0.8S3.2,3.4,3.2,3
	c0-0.4-0.2-0.8-0.5-0.8S2.2,2.5,2.2,3z M5.4,3c0,0.4,0.2,0.8,0.5,0.8c0.3,0,0.5-0.4,0.5-0.8c0-0.4-0.2-0.8-0.5-0.8
	C5.6,2.2,5.4,2.5,5.4,3z"/>
</svg>
