<?xml version="1.0" encoding="utf-8"?>
<!-- Generator: Adobe Illustrator 20.0.0, SVG Export Plug-In . SVG Version: 6.00 Build 0)  -->
<svg version="1.1" id="Слой_1" xmlns="http://www.w3.org/2000/svg" xmlns:xlink="http://www.w3.org/1999/xlink" x="0px" y="0px"
	 viewBox="0 0 8.6 8.6" style="enable-background:new 0 0 8.6 8.6;" xml:space="preserve">
<style type="text/css">
	.st0{fill:#010202;}
</style>
<path class="st0" d="M4.3,8.6c2.4,0,4.3-1.9,4.3-4.3S6.7,0,4.3,0C2,0,0,1.9,0,4.3S2,8.6,4.3,8.6z M4.3,0.8c1.9,0,3.5,1.6,3.5,3.5
	c0,1.9-1.6,3.5-3.5,3.5S0.8,6.2,0.8,4.3C0.8,2.3,2.4,0.8,4.3,0.8z M6,6.5C5.6,6,5,5.6,4.3,5.6C3.7,5.6,3.1,6,2.7,6.5L2,6.1
	c0.5-0.8,1.3-1.3,2.3-1.3s1.8,0.5,2.3,1.3L6,6.5z M6.5,2.3c0,0.1-0.1,0.3-0.2,0.3C6.1,2.7,6,2.8,5.8,2.8C5.9,2.9,6,3.1,6,3.2
	c0,0.3-0.2,0.5-0.5,0.5S4.9,3.5,4.9,3.2c0,0,0,0,0,0c0-0.4,0.4-0.7,0.7-0.8c0.3-0.1,0.6-0.2,0.6-0.2C6.3,2.1,6.5,2.2,6.5,2.3z
	 M2.2,2.3c0-0.1,0.2-0.2,0.3-0.2c0,0,0.3,0.1,0.6,0.2c0.3,0.2,0.7,0.4,0.7,0.8c0,0,0,0,0,0c0,0.3-0.2,0.5-0.5,0.5S2.7,3.5,2.7,3.2
	c0-0.1,0.1-0.3,0.1-0.4C2.7,2.8,2.5,2.7,2.4,2.7C2.2,2.6,2.2,2.5,2.2,2.3z"/>
</svg>
