<?xml version="1.0" encoding="utf-8"?>
<svg version="1.1" xmlns="http://www.w3.org/2000/svg" xmlns:xlink="http://www.w3.org/1999/xlink" x="0px" y="0px" viewBox="0 0 14.4 16.3" style="enable-background:new 0 0 14.4 16.3;" xml:space="preserve">
<style type="text/css">
	.st0{fill:#010202;}
</style>
<g>
	<g>
		<path class="st0" d="M13.9,3.6L7.8,0.1C7.5,0,7.2,0,6.8,0.1C6.7,0.2,6.6,0.3,6.5,0.5C6.4,0.6,6.3,0.8,6.3,0.9
			c0,0.8-0.2,1.5-0.6,2.2C5.1,4,4.3,4.9,3.5,5.7c-0.9,0.9-1.9,1.9-2.5,3c-0.6,1-0.9,2-0.9,3.1c0,0.4,0.2,0.7,0.5,0.9l6.1,3.5
			c0.3,0.2,0.7,0.2,1,0c0.2-0.1,0.3-0.2,0.4-0.4c0.1-0.1,0.1-0.3,0.1-0.5c0-0.8,0.2-1.5,0.6-2.2c0.5-0.9,1.4-1.7,2.2-2.6
			c0.9-0.9,1.9-1.9,2.5-3c0.6-1,0.9-2,0.9-3.1C14.4,4.1,14.2,3.8,13.9,3.6z M7.1,15.3C5.1,14.2,3,13,1,11.9C1.2,7.1,7.1,5.7,7.3,1
			c2,1.2,4.1,2.3,6.1,3.5C13.2,9.2,7.3,10.6,7.1,15.3z M7.7,7.1C7.6,7.2,7.4,7.3,7.3,7.4C7.1,7.5,7,7.6,6.9,7.7
			C6.5,7.5,6.2,7.2,5.9,7C5.9,6.9,6,6.8,6.2,6.8c0.1,0,0.2-0.1,0.3-0.1c0.1,0,0.2,0,0.3,0c0.1,0,0.2,0,0.2-0.1C7,6.5,7.1,6.5,7,6.4
			C7,6.3,7,6.2,6.8,6.1C6.7,6,6.6,6,6.4,6C6.3,6,6.1,6.1,6,6.1C5.8,6.2,5.7,6.3,5.6,6.4C5.5,6.5,5.4,6.6,5.3,6.7c0,0-0.1,0-0.1-0.1
			c0,0-0.1,0-0.1,0C5,6.7,5,6.7,5,6.8c0,0,0,0.1,0,0.1C5,7,5,7,5,7c0,0,0.1,0,0.1,0.1C5.1,7.3,5,7.4,5,7.6c0,0.2,0,0.4,0,0.5
			c0,0.2,0.1,0.3,0.2,0.4c0.1,0.1,0.2,0.2,0.4,0.3c0.3,0.1,0.6,0.1,0.9,0C6.7,8.9,7,8.7,7.3,8.4c0.4,0.2,0.7,0.5,1.1,0.7
			C8.3,9.3,8.2,9.3,8.2,9.4C8.1,9.4,8,9.4,7.9,9.4c-0.1,0-0.2,0-0.2,0c-0.1,0-0.1,0-0.2-0.1c-0.1,0-0.1,0-0.2,0
			c-0.1,0-0.1,0.1-0.2,0.2C7,9.6,7,9.7,7,9.8C7,9.8,7.1,9.9,7.2,10c0.1,0.1,0.2,0.1,0.4,0.1c0.1,0,0.3,0,0.5,0
			c0.2,0,0.3-0.1,0.5-0.2C8.7,9.8,8.8,9.6,9,9.4c0.1,0.1,0.2,0.1,0.3,0.2c0,0,0.1,0,0.1,0c0.1,0,0.1-0.1,0.1-0.1c0-0.1,0-0.1,0-0.2
			c0,0,0-0.1-0.1-0.1c-0.1,0-0.2-0.1-0.3-0.1c0.1-0.2,0.2-0.4,0.2-0.6c0-0.2,0-0.4,0-0.6c0-0.2-0.1-0.3-0.2-0.4
			C9.1,7.4,8.9,7.3,8.8,7.2C8.6,7.1,8.4,7,8.2,7C8.1,7,7.9,7.1,7.7,7.1z M6.2,8.2c-0.1,0-0.3,0-0.4,0C5.7,8.1,5.7,8.1,5.6,8
			c0-0.1-0.1-0.1-0.1-0.2c0-0.1,0-0.2,0-0.2c0-0.1,0-0.2,0.1-0.3C6,7.5,6.3,7.7,6.6,7.9C6.5,8.1,6.3,8.2,6.2,8.2z M8.7,8.1
			c0,0.1,0.1,0.1,0.1,0.2c0,0.1,0,0.2,0,0.3c0,0.1-0.1,0.2-0.1,0.3c-0.3-0.2-0.7-0.4-1-0.7c0.1,0,0.1-0.1,0.2-0.2
			C7.8,8,7.9,7.9,8,7.9c0.1,0,0.2-0.1,0.2-0.1c0.1,0,0.2,0,0.3,0.1C8.6,7.9,8.6,8,8.7,8.1z M7.4,11.3L7.4,11.3
			c-0.2,0.3-0.5,0.6-0.7,1c-0.2,0.3-0.4,0.7-0.5,1L6,13.8l0,0c0,0.1,0,0.2,0.1,0.3c0.1,0.1,0.3,0,0.3-0.1c0,0,0,0,0-0.1l0.2-0.5
			c0.1-0.3,0.3-0.6,0.5-0.9c0.2-0.3,0.4-0.6,0.6-0.9l0,0c0,0,0,0,0,0c0.1-0.1,0-0.3-0.1-0.3C7.6,11.1,7.5,11.2,7.4,11.3z M6.7,4.8
			C6.6,4.8,6.6,4.8,6.7,4.8C6.5,5,6.6,5.1,6.7,5.2C6.8,5.3,7,5.2,7,5.1l0,0c0.2-0.3,0.5-0.6,0.7-1c0.2-0.3,0.4-0.7,0.5-1l0.2-0.5
			l0,0c0.1-0.1,0-0.3-0.1-0.3C8.2,2.2,8,2.3,8,2.4c0,0,0,0,0,0.1L7.7,3C7.6,3.3,7.5,3.6,7.3,3.9C7.1,4.2,6.9,4.5,6.7,4.8z"/>
	</g>
</g>
</svg>
